<?xml version="1.0"?>
<svg xmlns="http://www.w3.org/2000/svg" xmlns:xlink="http://www.w3.org/1999/xlink" xmlns:svgjs="http://svgjs.com/svgjs" version="1.1" width="512" height="512" x="0" y="0" viewBox="0 0 512 512" style="enable-background:new 0 0 512 512" xml:space="preserve" class=""><g transform="matrix(0.82,0,0,0.82,46.07981031417842,46.079998626709056)"><g xmlns="http://www.w3.org/2000/svg"><g><path d="m413.249 300.747-45.548 4.27c-15.079 22.476-34.376 41.307-57.611 56.191-22.357 14.323-40.791 19.839-43.301 20.562l19.354 78.163c4.081-1.018 91.502-23.607 149.866-112.235z" fill="#69a2de" data-original="#69a2de" class=""/><path d="m435.457 262.437c-19.971-9.778-44.089-1.51-53.867 18.462-4.135 8.45-8.77 16.499-13.89 24.119l68.308 42.682c6.362-9.663 12.384-20.111 17.91-31.395 9.779-19.973 1.511-44.09-18.461-53.868z" fill="#c7856a" data-original="#c7856a" class=""/><path d="m184.598 371.59 27.576 71.132-27.576 61.778h-89.748c0-93.784 68.237-132.91 68.237-132.91z" fill="#93bbe7" data-original="#93bbe7" class=""/><path d="m366.438 504.5h-89.738l-22.312-66.455 22.312-66.455h21.511c.001 0 68.227 39.126 68.227 132.91z" fill="#93bbe7" data-original="#93bbe7" class=""/><path d="m184.598 371.59h92.103v132.91h-92.103z" fill="#d6d6d6" data-original="#d6d6d6" class=""/><path d="m364.556 135.876c0-70.9-17.212-128.376-88.113-128.376h-109.053c-23.521 0-45.221 13.595-54.601 35.165-.124.285-.246.572-.366.861-3.969 9.54-12.505 16.472-22.695 18.182-32.402 5.436-92.743 31.893-59.526 156.397h77.506z" fill="#5c586f" data-original="#5c586f" class=""/><path d="m111.348 213.667c0-88.335 41.903-165.378 104.035-206.167h-47.993c-23.521 0-45.221 13.594-54.601 35.165-.124.285-.246.572-.366.86-3.969 9.54-12.505 16.472-22.695 18.182-32.402 5.437-92.743 31.894-59.526 156.398h77.506l3.676-1.177c-.013-1.087-.036-2.171-.036-3.261z" fill="#4f4c5f" data-original="#4f4c5f"/><path d="m392.388 226.258c0 89.07-72.517 161.217-161.741 160.598-88.854-.617-159.778-72.346-159.451-161.202.051-13.921 1.873-27.423 5.253-40.294 7.653-29.146 33.972-49.484 64.106-49.484h224.001c17.565 25.749 27.832 56.863 27.832 90.382z" fill="#da9d81" data-original="#da9d81" class=""/><path d="m237.138 176.046c-29.431 0-53.29 23.859-53.29 53.29 0 29.431 23.859 53.29 53.29 53.29h76.501v-106.58z" fill="#4f4c5f" data-original="#4f4c5f"/><path d="m438.187 176.046h-124.548c-29.431 0-53.29 23.859-53.29 53.29 0 29.431 23.859 53.29 53.29 53.29h124.549c29.431 0 53.29-23.859 53.29-53.29 0-29.431-23.859-53.29-53.291-53.29z" fill="#5c586f" data-original="#5c586f" class=""/><path d="m313.639 247.396c-9.958 0-18.06-8.102-18.06-18.06s8.102-18.06 18.06-18.06h124.549c9.958 0 18.06 8.101 18.06 18.06s-8.102 18.06-18.06 18.06z" fill="#50e1cd" data-original="#50e1cd"/><path d="m325.579 229.336c0-9.958 8.102-18.06 18.06-18.06h-30c-9.958 0-18.06 8.101-18.06 18.06 0 9.958 8.102 18.06 18.06 18.06h30c-9.958 0-18.06-8.101-18.06-18.06z" fill="#00d1b3" data-original="#00d1b3"/><path d="m163.924 371.987c-32.685-41.977-52.577-97.467-52.577-158.32 0-26.251 3.708-51.502 10.54-75.104-21.87 6.425-39.422 23.887-45.438 46.797-.859 3.27-1.614 6.581-2.268 9.929-1.292-.118-2.619-.19-3.997-.19-25.546 0-46.255 20.709-46.255 46.255s20.709 46.255 46.255 46.255c4.567 0 8.652-.672 12.294-1.906 15.107 38.176 44.36 69.088 81.446 86.284z" fill="#c7856a" data-original="#c7856a" class=""/></g><g><path d="m438.179 203.776h-124.549c-14.094 0-25.56 11.466-25.56 25.56s11.466 25.56 25.56 25.56h124.549c14.094 0 25.56-11.466 25.56-25.56s-11.466-25.56-25.56-25.56zm0 36.12h-124.549c-5.823 0-10.56-4.737-10.56-10.56s4.737-10.56 10.56-10.56h124.549c5.823 0 10.56 4.737 10.56 10.56s-4.737 10.56-10.56 10.56z" fill="#000000" data-original="#000000"/><path d="m274.901 319.008c2.721-3.123 2.396-7.86-.727-10.582-3.123-2.721-7.86-2.396-10.582.727-7.53 8.641-20.936 8.666-28.488 0-2.721-3.124-7.459-3.448-10.582-.727s-3.448 7.459-.727 10.582c13.523 15.517 37.596 15.501 51.106 0z" fill="#000000" data-original="#000000"/><path d="m438.179 168.546h-48.484c-4.49-12.283-10.423-23.994-17.658-34.926-.216-40.529-6.249-70.716-18.434-92.217-15.569-27.473-41.532-41.403-77.168-41.403h-109.053c-26.868 0-51.441 15.622-61.892 40.645-3.028 7.278-9.387 12.387-17.011 13.667-18.256 3.062-43.445 12.038-59.775 37.407-18.436 28.641-20.614 70.838-6.505 125.434-19.516 38.53 12.603 83.719 55.771 77.38 14.627 33.124 39.755 60.524 70.658 78.063-10.688 8.426-27.361 24.155-40.66 48.379-1.993 3.631-.666 8.19 2.965 10.184s8.191.667 10.184-2.965c14.972-27.272 34.914-42.785 42.546-48.049 4.394 1.935 8.872 3.682 13.425 5.231v111.624h-27.688v-37.283c0-4.142-3.358-7.5-7.5-7.5s-7.5 3.358-7.5 7.5v37.283h-31.903c.623-14.925 3.112-29.264 7.424-42.721 1.264-3.945-.91-8.167-4.854-9.431-3.944-1.266-8.167.909-9.431 4.854-5.504 17.178-8.295 35.615-8.295 54.798 0 4.142 3.358 7.5 7.5 7.5h271.588c4.142 0 7.5-3.358 7.5-7.5 0-25.507-4.775-49.146-14.226-70.643 14.609-9.536 28.352-20.373 40.917-32.293 3.005-2.851 3.13-7.598.279-10.603-2.85-3.005-7.597-3.131-10.603-.279-11.487 10.897-24.011 20.847-37.314 29.652-10.53-18.906-24.477-35.064-39.536-47.112 24.773-13.778 45.062-33.237 59.689-55.958l52.281 32.667c-4.764 6.8-9.862 13.407-15.211 19.711-2.68 3.158-2.293 7.891.866 10.571 3.159 2.681 7.891 2.293 10.571-.866 15.731-18.536 28.647-38.596 39.003-59.746 5.427-11.084 6.345-23.466 2.78-34.987 20.949-9.607 35.543-30.763 35.543-55.278.002-33.52-27.269-60.79-60.789-60.79zm-396.862-68.709c13.363-20.759 34.372-28.17 49.645-30.733 12.747-2.139 23.355-10.624 28.378-22.696 7.801-18.811 26.621-31.408 48.042-31.408h109.053c54.056 0 79.073 35.042 80.543 113.376h-216.431c-32.103 0-63.395 20.868-72.399 59.261-21.709.828-34.116 14.002-34.244 14.081-9.884-44.631-7.404-78.862 7.413-101.881zm-9.897 141.517c0-19.41 14.461-35.945 33.879-38.437-3.48 25.045-1.402 51.756 7.073 77.129-22.24 1.27-40.952-16.507-40.952-38.692zm52.275-54.089c6.786-25.841 30.164-43.889 56.852-43.889h219.977c5.146 7.976 9.531 16.401 13.101 25.169-19.242 0-117.23 0-136.496 0-33.52 0-60.791 27.271-60.791 60.791s27.271 60.79 60.791 60.79h133.806c-31.968 69.7-110.572 104.902-184.061 82.603-78.658-23.875-124.058-105.905-103.179-185.464zm189.993 87.861h-36.558c-25.249 0-45.791-20.542-45.791-45.79 0-25.249 20.542-45.791 45.791-45.791h36.558c-27.718 24.218-27.821 67.256 0 91.581zm-81.599 114.578c25.13 6.003 51.781 6.229 77.104.483v106.813h-77.104zm92.104 107.296v-110.965c4.803-1.574 9.533-3.368 14.18-5.377 13.445 9.436 57.463 45.601 60.402 116.342zm164.929-207.863c2.398 7.868 1.753 16.311-1.947 23.869-4.094 8.36-8.619 16.54-13.495 24.4l-52.986-33.108c2.327-4.443 4.825-9.838 6.602-14.17 53.954-.032 54.484.35 61.826-.991zm.109-15.366c-7.837 1.948-7.322 1.356-135.601 1.356-25.249 0-45.79-20.542-45.79-45.79 0-25.249 20.542-45.791 45.79-45.791h124.549c25.249 0 45.791 20.542 45.791 45.791 0 21.1-14.463 39.38-34.739 44.434z" fill="#000000" data-original="#000000"/></g></g></g></svg>
